<svg width="24" height="24" viewBox="0 0 24 24" fill="none" xmlns="http://www.w3.org/2000/svg">
<path d="M20.46 10.5C19.395 10.2 17.625 9.855 15.615 9.495L9.885 3.135C9.57099 2.79016 9.19032 2.51257 8.766 2.319L6.975 1.5C6.84 1.5 6.75 1.5 6.825 1.665C6.9 1.83 9 6 10.26 8.55C7.5 8.115 5.01 7.755 3.915 7.605C3.72944 7.5712 3.55277 7.49973 3.39591 7.39498C3.23905 7.29024 3.10533 7.15445 3.003 6.996L1.92 5.385C1.74807 5.13309 1.49833 4.94446 1.209 4.848L0 4.5L0.915 9.39C1.0155 9.9 1.392 10.3035 1.881 10.4385C3.87 11.01 9.105 12.45 13.17 13.32C22.17 15.24 23.37 15.24 23.85 14.685C24.33 14.13 22.845 11.115 20.46 10.5ZM0 19.5H24V21H0V19.5Z" fill="#FFCD29"/>
</svg>
